<?xml version="1.0" encoding="utf-8"?>
<!-- Generator: Adobe Illustrator 17.0.0, SVG Export Plug-In . SVG Version: 6.00 Build 0)  -->
<!DOCTYPE svg PUBLIC "-//W3C//DTD SVG 1.1//EN" "http://www.w3.org/Graphics/SVG/1.1/DTD/svg11.dtd">
<svg version="1.1" id="Layer_1" xmlns="http://www.w3.org/2000/svg" xmlns:xlink="http://www.w3.org/1999/xlink" x="0px" y="0px"
	 width="192px" height="110px" viewBox="0 0 192 110" enable-background="new 0 0 192 110" xml:space="preserve">
<g>
	<g>
		<g>
			<path fill="#00241D" d="M145.992,20.78C131.386,7.648,114.099,0.7,96,0.7c-18.099,0-35.386,6.948-49.986,20.08l-1.475,1.329
				l30.128,30.241l1.319-1.049c6.62-5.258,13.358-7.922,20.015-7.922c6.663,0,13.395,2.664,20.015,7.922l1.319,1.049l30.128-30.241
				L145.992,20.78z M50.023,22.276C63.176,10.979,78.482,4.849,94.472,4.483l-0.086,15.537c-11.506,0.377-22.98,4.811-33.357,13.304
				L50.023,22.276z M117.021,47.323c-6.883-5.118-13.95-7.712-21.021-7.712c-7.072,0-14.138,2.594-21.021,7.712l-4.408-4.424
				c16.296-12.712,34.654-12.696,50.842,0.022L117.021,47.323z M124.088,40.235c-17.636-14.041-38.453-14.063-56.197-0.022
				l-4.182-4.203c20.107-16.264,44.567-16.242,64.56,0.027L124.088,40.235z M130.944,33.352
				c-10.177-8.38-21.447-12.82-32.791-13.309l0.038-6.27c14.375,1.184,25.914,5.985,36.946,15.376L130.944,33.352z M137.806,26.468
				c-11.813-10.123-24.159-15.263-39.599-16.479l0.032-5.484c15.731,0.527,30.779,6.641,43.744,17.771L137.806,26.468z"/>
		</g>
	</g>
	<g>
		<g>
			<path fill="#00241D" d="M0,63.787h5.166l3.939,38.296l4.198-38.296h5.166l4.198,38.231l3.939-38.231h5.037l-5.489,45.206h-6.716
				l-3.616-32.419l-3.616,32.419H5.489L0,63.787z"/>
		</g>
		<g>
			<path fill="#00241D" d="M45.336,109.38h-1.937c-5.618,0-8.395-2.777-8.395-8.395v-29.19c0-5.619,2.777-8.396,8.395-8.396h1.937
				c5.618,0,8.395,2.777,8.395,8.396v29.19C53.731,106.603,50.954,109.38,45.336,109.38z M45.142,68.114h-1.55
				c-2.325,0-3.423,1.098-3.423,3.423v29.707c0,2.325,1.098,3.423,3.423,3.423h1.55c2.325,0,3.423-1.098,3.423-3.423V71.537
				C48.565,69.212,47.467,68.114,45.142,68.114z"/>
		</g>
		<g>
			<path fill="#00241D" d="M68.715,109.38h-1.937c-5.619,0-8.395-2.777-8.395-8.395v-29.19c0-5.619,2.777-8.396,8.395-8.396h1.937
				c5.618,0,8.395,2.777,8.395,8.396v29.19C77.11,106.603,74.333,109.38,68.715,109.38z M68.521,68.114h-1.55
				c-2.325,0-3.423,1.098-3.423,3.423v29.707c0,2.325,1.098,3.423,3.423,3.423h1.55c2.325,0,3.423-1.098,3.423-3.423V71.537
				C71.944,69.212,70.846,68.114,68.521,68.114z"/>
		</g>
		<g>
			<path fill="#00241D" d="M81.89,63.787h8.525c6.78,0,10.009,3.229,10.009,10.01v25.186c0,6.781-3.229,10.01-10.009,10.01H81.89
				V63.787z M87.056,104.278h3.1c3.487,0,5.102-1.744,5.102-5.231V73.732c0-3.487-1.615-5.231-5.102-5.231h-3.1V104.278z"/>
		</g>
		<g>
			<path fill="#00241D" d="M123.092,94.398v6.587c0,5.618-2.777,8.395-8.395,8.395h-1.421c-5.554,0-8.266-2.777-8.266-8.266v-9.493
				h5.038v9.687c0,2.325,1.098,3.423,3.423,3.423h1.033c2.325,0,3.423-1.098,3.423-3.423v-6.781c0-2.26-0.775-3.229-2.26-4.327
				l-6.329-4.585c-3.358-2.389-4.327-4.714-4.327-8.395v-5.424c0-5.619,2.777-8.396,8.395-8.396h1.292
				c5.554,0,8.266,2.777,8.266,8.266v8.137h-5.038v-8.331c0-2.325-1.097-3.423-3.423-3.423h-0.904c-2.325,0-3.423,1.098-3.423,3.423
				v5.683c0,2.26,0.84,3.229,2.325,4.327l6.264,4.52C122.058,88.392,123.092,90.523,123.092,94.398z"/>
		</g>
		<g>
			<path fill="#00241D" d="M141.239,83.484V63.787h5.166v45.206h-5.166V88.327h-8.395v20.665h-5.166V63.787h5.166v19.697H141.239z"
				/>
		</g>
		<g>
			<path fill="#00241D" d="M161.518,109.38h-1.937c-5.618,0-8.395-2.777-8.395-8.395v-29.19c0-5.619,2.777-8.396,8.395-8.396h1.937
				c5.618,0,8.395,2.777,8.395,8.396v29.19C169.913,106.603,167.136,109.38,161.518,109.38z M161.324,68.114h-1.55
				c-2.325,0-3.423,1.098-3.423,3.423v29.707c0,2.325,1.098,3.423,3.423,3.423h1.55c2.325,0,3.423-1.098,3.423-3.423V71.537
				C164.747,69.212,163.649,68.114,161.324,68.114z"/>
		</g>
		<g>
			<path fill="#00241D" d="M179.859,108.993h-5.166V63.787h8.912c5.618,0,8.395,2.777,8.395,8.395v11.431
				c0,5.618-2.777,8.395-8.395,8.395h-3.745V108.993z M183.411,68.501h-3.552v18.793h3.552c2.325,0,3.423-1.098,3.423-3.423V71.924
				C186.834,69.599,185.736,68.501,183.411,68.501z"/>
		</g>
	</g>
</g>
</svg>
