<?xml version="1.0" encoding="utf-8"?>
<!-- Generator: Adobe Illustrator 17.1.0, SVG Export Plug-In . SVG Version: 6.00 Build 0)  -->
<!DOCTYPE svg PUBLIC "-//W3C//DTD SVG 1.1//EN" "http://www.w3.org/Graphics/SVG/1.1/DTD/svg11.dtd">
<svg version="1.1" id="Layer_1" xmlns="http://www.w3.org/2000/svg" xmlns:xlink="http://www.w3.org/1999/xlink" x="0px" y="0px"
	 width="192px" height="110px" viewBox="0 0 192 110" enable-background="new 0 0 192 110" xml:space="preserve">
<g>
	<g>
		<path fill="#00241D" d="M146,20.8C131.4,7.6,114.1,0.7,96,0.7S60.6,7.6,46,20.8l-1.5,1.3l30.1,30.2l1.3-1c6.6-5.3,13.4-7.9,20-7.9
			c6.7,0,13.4,2.7,20,7.9l1.3,1l30.1-30.2L146,20.8z M50,22.3C63.2,11,78.5,4.8,94.5,4.5L94.4,20c-11.5,0.4-23,4.8-33.4,13.3
			L50,22.3z M117,47.3c-6.9-5.1-13.9-7.7-21-7.7c-7.1,0-14.1,2.6-21,7.7l-4.4-4.4c16.3-12.7,34.7-12.7,50.8,0L117,47.3z M124.1,40.2
			c-17.6-14-38.5-14.1-56.2,0L63.7,36c20.1-16.3,44.6-16.2,64.6,0L124.1,40.2z M130.9,33.4C120.8,25,109.5,20.5,98.2,20l0-6.3
			c14.4,1.2,25.9,6,36.9,15.4L130.9,33.4z M137.8,26.5C126,16.3,113.6,11.2,98.2,10l0-5.5C114,5,129,11.1,142,22.3L137.8,26.5z"/>
	</g>
</g>
<g>
	<path fill="#00241D" d="M33.2,70l-6.6,38.4h-5.3l-4.8-27.8l-4.7,27.8H6.6L0,70h4.1l5.3,31.7L14.8,70h3.7l5.3,31.7L29.2,70H33.2z"/>
	<path fill="#00241D" d="M54,102.9c0,3-2.5,5.5-5.5,5.5h-6.9c-3,0-5.5-2.5-5.5-5.5V75.5c0-3,2.5-5.5,5.5-5.5h6.9
		c3,0,5.5,2.5,5.5,5.5V102.9z M49.9,75.5c0-0.8-0.5-1.4-1.4-1.4h-6.9c-0.8,0-1.4,0.5-1.4,1.4v27.4c0,0.8,0.5,1.4,1.4,1.4h6.9
		c0.8,0,1.4-0.5,1.4-1.4V75.5z"/>
	<path fill="#00241D" d="M76.9,102.9c0,3-2.5,5.5-5.5,5.5h-6.9c-3,0-5.5-2.5-5.5-5.5V75.5c0-3,2.5-5.5,5.5-5.5h6.9
		c3,0,5.5,2.5,5.5,5.5V102.9z M72.8,75.5c0-0.8-0.5-1.4-1.4-1.4h-6.9c-0.8,0-1.4,0.5-1.4,1.4v27.4c0,0.8,0.5,1.4,1.4,1.4h6.9
		c0.8,0,1.4-0.5,1.4-1.4V75.5z"/>
	<path fill="#00241D" d="M99.8,102.9c0,3-2.5,5.5-5.5,5.5H81.9V70h12.3c3,0,5.5,2.5,5.5,5.5V102.9z M95.7,75.5
		c0-0.8-0.5-1.4-1.4-1.4h-8.2v30.2h8.2c0.8,0,1.4-0.5,1.4-1.4V75.5z"/>
	<path fill="#00241D" d="M118.5,97.4c0-0.8-0.2-1.4-0.7-1.8l-11.2-11.1c-1.2-1.1-1.9-2.9-1.9-4.8v-4.2c0-3,2.5-5.5,5.5-5.5h6.9
		c3,0,5.5,2.5,5.5,5.5V81h-4.1v-5.5c0-0.8-0.5-1.4-1.4-1.4h-6.9c-0.8,0-1.4,0.5-1.4,1.4v4.2c0,0.7,0.2,1.3,0.7,1.8l11.2,11.1
		c1.2,1.1,1.9,2.9,1.9,4.8v5.5c0,3-2.5,5.5-5.5,5.5h-6.9c-3,0-5.5-2.5-5.5-5.5v-5.5h4.1v5.5c0,0.8,0.6,1.4,1.4,1.4h6.9
		c0.8,0,1.4-0.5,1.4-1.4V97.4z"/>
	<path fill="#00241D" d="M145.5,108.4h-4.1V90.1h-9.6v18.3h-4.1V70h4.1v16h9.6V70h4.1V108.4z"/>
	<path fill="#00241D" d="M168.4,102.9c0,3-2.5,5.5-5.5,5.5h-6.9c-3,0-5.5-2.5-5.5-5.5V75.5c0-3,2.5-5.5,5.5-5.5h6.9
		c3,0,5.5,2.5,5.5,5.5V102.9z M164.3,75.5c0-0.8-0.5-1.4-1.4-1.4h-6.9c-0.8,0-1.4,0.5-1.4,1.4v27.4c0,0.8,0.5,1.4,1.4,1.4h6.9
		c0.8,0,1.4-0.5,1.4-1.4V75.5z"/>
	<path fill="#00241D" d="M191.3,88.2c0,3-2.4,5.5-5.5,5.5h-8.2v14.7h-4.1V70h12.3c3,0,5.5,2.5,5.5,5.5V88.2z M187.2,75.5
		c0-0.8-0.5-1.4-1.4-1.4h-8.2v15.5h8.2c0.8,0,1.4-0.5,1.4-1.4V75.5z"/>
</g>
</svg>
